<svg width="20" height="20" viewBox="0 0 20 20" fill="none" xmlns="http://www.w3.org/2000/svg">
<path fill-rule="evenodd" clip-rule="evenodd" d="M9.8335 0C12.4577 0.0459978 14.9585 1.08945 16.7975 2.90581C18.6366 4.72217 19.667 7.16624 19.667 9.71206C19.667 12.2579 18.6366 14.702 16.7975 16.5183C14.9585 18.3347 12.4577 19.3781 9.8335 19.4241C7.20927 19.3781 4.70855 18.3347 2.86948 16.5183C1.03041 14.702 0 12.2579 0 9.71206C0 7.16624 1.03041 4.72217 2.86948 2.90581C4.70855 1.08945 7.20927 0.0459978 9.8335 0ZM7.75411 12.867L5.30199 10.4864C5.10127 10.291 4.98857 10.0265 4.98857 9.75065C4.98857 9.47484 5.10127 9.21027 5.30199 9.01491C5.50373 8.82041 5.77662 8.71125 6.06106 8.71125C6.3455 8.71125 6.61839 8.82041 6.82012 9.01491L8.5475 10.6925L12.8469 6.52228C13.0483 6.32759 13.3211 6.21827 13.6054 6.21827C13.8898 6.21827 14.1625 6.32759 14.3639 6.52228C14.5644 6.71778 14.6769 6.98229 14.6769 7.25802C14.6769 7.53374 14.5644 7.79826 14.3639 7.99376L9.30494 12.9008C9.20224 12.9999 9.07996 13.0779 8.94544 13.13C8.81092 13.1821 8.66692 13.2074 8.52209 13.2042C8.37727 13.2011 8.23459 13.1696 8.10262 13.1116C7.97065 13.0537 7.85211 12.9704 7.75411 12.867Z" fill="#00BA00"/>
</svg>
