<svg width="66" height="66" viewBox="0 0 66 66" fill="none" xmlns="http://www.w3.org/2000/svg">
<circle cx="33" cy="33" r="33" fill="#E4DEFF"/>
<path d="M44.1223 24.1825C45.1033 25.6118 45.1033 27.6014 45.1033 31.5807C45.1033 35.56 45.1033 37.5497 44.1223 38.979C43.6976 39.5977 43.1519 40.129 42.5164 40.5424C41.2338 41.3767 39.512 41.4821 36.3722 41.4955V41.4974L34.7634 44.6299C34.2271 45.674 32.6965 45.674 32.1602 44.6299L30.5514 41.4974V41.4955C27.4116 41.4821 25.6898 41.3767 24.4072 40.5424C23.7717 40.129 23.226 39.5977 22.8013 38.979C21.8203 37.5497 21.8203 35.56 21.8203 31.5807C21.8203 27.6014 21.8203 25.6118 22.8013 24.1825C23.226 23.5638 23.7717 23.0325 24.4072 22.6191C25.8754 21.6641 27.9191 21.6641 32.0066 21.6641H34.917C39.0045 21.6641 41.0482 21.6641 42.5164 22.6191C43.1519 23.0325 43.6976 23.5638 44.1223 24.1825Z" stroke="#333333" stroke-width="2.66667" stroke-linecap="round" stroke-linejoin="round"/>
<path d="M29.0957 28.75L37.8268 28.75" stroke="#333333" stroke-width="2.66667" stroke-linecap="round" stroke-linejoin="round"/>
<path d="M29.0957 33H33.4613" stroke="#333333" stroke-width="2.66667" stroke-linecap="round" stroke-linejoin="round"/>
</svg>
