<svg width="21" height="21" viewBox="0 0 21 21" fill="none" xmlns="http://www.w3.org/2000/svg">
<path d="M10.5 6.3C9.91963 6.3 9.45 5.82984 9.45 5.25V1.05C9.45 0.470162 9.91963 0 10.5 0C11.0804 0 11.55 0.470162 11.55 1.05V5.25C11.55 5.82984 11.0804 6.3 10.5 6.3ZM14.2119 7.83772C13.9433 7.83772 13.6746 7.73518 13.4695 7.5301C13.0594 7.11994 13.0594 6.45524 13.4695 6.04521L16.4401 3.07531C16.8502 2.6654 17.5147 2.66528 17.9249 3.07543C18.335 3.48559 18.335 4.15029 17.9249 4.56032L14.9543 7.53022C14.8569 7.62784 14.7412 7.70526 14.6138 7.75803C14.4864 7.8108 14.3498 7.83788 14.2119 7.83772ZM19.95 11.55H15.75C15.1696 11.55 14.7 11.0798 14.7 10.5C14.7 9.92016 15.1696 9.45 15.75 9.45H19.95C20.5304 9.45 21 9.92016 21 10.5C21 11.0798 20.5304 11.55 19.95 11.55ZM17.1825 18.2322C16.9138 18.2322 16.6452 18.1297 16.4401 17.9247L13.4695 14.9548C13.0594 14.5448 13.0594 13.8801 13.4695 13.4699C13.8797 13.0598 14.5441 13.0599 14.9543 13.4698L17.9249 16.4397C18.335 16.8498 18.335 17.5145 17.9249 17.9246C17.7198 18.1297 17.4511 18.2322 17.1825 18.2322ZM10.5 21C9.91963 21 9.45 20.5298 9.45 19.95V15.75C9.45 15.1702 9.91963 14.7 10.5 14.7C11.0804 14.7 11.55 15.1702 11.55 15.75V19.95C11.55 20.5298 11.0804 21 10.5 21ZM3.81753 18.2322C3.54888 18.2322 3.28022 18.1297 3.07515 17.9246C2.66499 17.5145 2.66499 16.8498 3.07515 16.4397L6.0457 13.4698C6.45586 13.0599 7.12031 13.0598 7.53047 13.4699C7.94063 13.8801 7.94063 14.5448 7.53047 14.9548L4.55991 17.9247C4.46252 18.0223 4.3468 18.0998 4.2194 18.1525C4.09199 18.2053 3.95543 18.2324 3.81753 18.2322ZM5.25 11.55H1.05C0.469629 11.55 0 11.0798 0 10.5C0 9.92016 0.469629 9.45 1.05 9.45H5.25C5.83037 9.45 6.3 9.92016 6.3 10.5C6.3 11.0798 5.83037 11.55 5.25 11.55ZM6.78809 7.83772C6.51943 7.83772 6.25078 7.73518 6.0457 7.53022L3.07515 4.56032C2.66499 4.15029 2.66499 3.48559 3.07515 3.07543C3.4853 2.66528 4.14976 2.6654 4.55991 3.07531L7.53047 6.04521C7.94063 6.45524 7.94063 7.11994 7.53047 7.5301C7.32539 7.73518 7.05674 7.83772 6.78809 7.83772Z" fill="#9391AB"/>
<path d="M10.4992 6.3C9.91885 6.3 9.44922 5.82984 9.44922 5.25V1.05C9.44922 0.470162 9.91885 0 10.4992 0C11.0796 0 11.5492 0.470162 11.5492 1.05V5.25C11.5492 5.82984 11.0796 6.3 10.4992 6.3Z" fill="#9391AB"/>
</svg>
