<svg width="18" height="21" viewBox="0 0 18 21" fill="none" xmlns="http://www.w3.org/2000/svg">
<path d="M2.29937 4.47045C0.984431 5.89492 0.183616 7.73857 0.0299696 9.69509C-0.137201 11.7303 0.398739 13.7609 1.54377 15.4308C2.68881 17.1007 4.36981 18.3032 6.29189 18.8273C6.35049 18.8444 6.41184 18.8494 6.47233 18.8419C6.53282 18.8344 6.59125 18.8146 6.6442 18.7836C6.69715 18.7526 6.74356 18.7111 6.78071 18.6615C6.81786 18.6119 6.84501 18.5552 6.86057 18.4947C6.87613 18.4342 6.87979 18.3711 6.87134 18.3091C6.86288 18.2472 6.84248 18.1875 6.81133 18.1338C6.78018 18.08 6.7389 18.0331 6.6899 17.9959C6.64091 17.9587 6.58518 17.9319 6.52599 17.9171C4.92 17.4787 3.49976 16.5083 2.48561 15.1563C1.47145 13.8044 0.920084 12.1465 0.917037 10.4399C0.913989 8.73322 1.45943 7.07325 2.46875 5.71749C3.47807 4.36172 4.89483 3.38595 6.49925 2.94155L5.53733 4.03374C5.49695 4.0796 5.46575 4.13317 5.44553 4.19141C5.4253 4.24964 5.41645 4.3114 5.41946 4.37315C5.42248 4.43491 5.43731 4.49544 5.4631 4.55131C5.4889 4.60718 5.52515 4.65728 5.5698 4.69875C5.61445 4.74023 5.66662 4.77227 5.72332 4.79304C5.78003 4.81381 5.84016 4.8229 5.90029 4.81981C5.96041 4.81671 6.01936 4.80148 6.07375 4.77499C6.12815 4.7485 6.17693 4.71126 6.21732 4.6654L8.07559 2.55553C8.11762 2.5078 8.14968 2.45174 8.16978 2.39079C8.18988 2.32985 8.19761 2.26531 8.19248 2.20118C8.18735 2.13705 8.16947 2.07468 8.13995 2.01792C8.11043 1.96116 8.0699 1.91122 8.02085 1.87118L5.85207 0.100674C5.75683 0.0237761 5.63581 -0.0112706 5.51548 0.00319342C5.39515 0.0176575 5.28528 0.080456 5.2099 0.177864C5.13451 0.275271 5.09974 0.399367 5.11318 0.523027C5.12661 0.646687 5.18717 0.759855 5.28161 0.837798L6.63169 1.93995C4.97419 2.32087 3.46545 3.20212 2.29937 4.47045ZM17.9001 10.2701C17.9001 10.1453 17.8519 10.0255 17.7659 9.93723C17.6799 9.84894 17.5633 9.79934 17.4417 9.79934H16.4643C16.3427 9.79934 16.2261 9.84894 16.1401 9.93723C16.0541 10.0255 16.0058 10.1453 16.0058 10.2701C16.0058 10.395 16.0541 10.5148 16.1401 10.6031C16.2261 10.6913 16.3427 10.7409 16.4643 10.7409H17.4417C17.5633 10.7409 17.6799 10.6913 17.7659 10.6031C17.8519 10.5148 17.9001 10.395 17.9001 10.2701ZM16.1374 12.8418C16.0244 12.7974 15.8989 12.8006 15.7882 12.8508C15.6776 12.901 15.5907 12.994 15.5466 13.1097C15.5024 13.2254 15.5046 13.3543 15.5526 13.4683C15.6006 13.5824 15.6906 13.6723 15.8029 13.7185L16.713 14.0848C16.826 14.1296 16.9517 14.1266 17.0626 14.0765C17.1735 14.0264 17.2606 13.9332 17.3048 13.8173C17.349 13.7015 17.3468 13.5724 17.2985 13.4582C17.2503 13.344 17.1601 13.2541 17.0475 13.2081L16.1374 12.8418ZM14.1292 16.2429L14.8464 16.9251C14.9357 17.0095 15.0539 17.0541 15.1751 17.0491C15.2964 17.0442 15.4108 16.99 15.4932 16.8986C15.5757 16.8071 15.6195 16.6859 15.615 16.5613C15.6105 16.4368 15.5581 16.3191 15.4693 16.2342L14.7522 15.5521C14.7081 15.5095 14.6563 15.4762 14.5996 15.4543C14.543 15.4324 14.4827 15.4222 14.4222 15.4243C14.3617 15.4264 14.3022 15.4408 14.2472 15.4667C14.1922 15.4925 14.1427 15.5293 14.1015 15.5749C14.0604 15.6205 14.0285 15.674 14.0076 15.7324C13.9867 15.7907 13.9773 15.8527 13.9799 15.9148C13.9824 15.9769 13.997 16.0379 14.0226 16.0942C14.0482 16.1505 14.0845 16.201 14.1292 16.2429ZM11.8873 17.3374C11.7778 17.3917 11.6939 17.4885 11.6539 17.6064C11.6139 17.7243 11.6212 17.8537 11.6741 17.9661L12.0995 18.8699C12.1524 18.9823 12.2466 19.0685 12.3614 19.1096C12.4763 19.1507 12.6022 19.1432 12.7117 19.0889C12.8212 19.0345 12.9051 18.9377 12.9451 18.8198C12.9851 18.7019 12.9778 18.5725 12.9249 18.4601L12.4995 17.5563C12.4466 17.4439 12.3523 17.3577 12.2375 17.3166C12.1227 17.2756 11.9967 17.283 11.8873 17.3374ZM9.19788 18.1449C9.07666 18.1545 8.96411 18.2132 8.88499 18.308C8.80587 18.4028 8.76666 18.526 8.77598 18.6505L8.85097 19.6514C8.85982 19.7696 8.91174 19.88 8.99637 19.9606C9.081 20.0411 9.19211 20.086 9.30752 20.0861C9.31932 20.0861 9.3312 20.0857 9.34316 20.0847C9.46437 20.0751 9.57691 20.0165 9.65603 19.9217C9.73515 19.8269 9.77437 19.7037 9.76506 19.5792L9.69007 18.5782C9.68074 18.4538 9.62364 18.3382 9.53134 18.2569C9.43904 18.1757 9.31909 18.1354 9.19788 18.1449ZM9.4476 2.74526C9.55776 2.74512 9.66418 2.70424 9.74739 2.63011C9.8306 2.55599 9.88504 2.45356 9.90075 2.34159L10.0402 1.34791C10.0495 1.28637 10.0469 1.22353 10.0324 1.16304C10.018 1.10255 9.99196 1.04561 9.95591 0.99552C9.91986 0.945427 9.87449 0.903178 9.82244 0.871221C9.77038 0.839265 9.71266 0.818235 9.65263 0.80935C9.5926 0.800466 9.53145 0.803903 9.47273 0.819464C9.414 0.835024 9.35886 0.862398 9.31051 0.899999C9.26216 0.937601 9.22155 0.984683 9.19105 1.03852C9.16054 1.09235 9.14073 1.15187 9.13278 1.21362L8.99331 2.20729C8.98398 2.27414 8.98875 2.34228 9.0073 2.40707C9.02586 2.47186 9.05776 2.5318 9.10084 2.58282C9.14393 2.63384 9.19719 2.67475 9.25702 2.70278C9.31685 2.73081 9.38184 2.7453 9.4476 2.74526ZM12.2772 3.67695C12.3583 3.67702 12.4379 3.655 12.508 3.61314C12.5781 3.57127 12.6362 3.51106 12.6762 3.43864L13.159 2.56577C13.2181 2.45727 13.233 2.32919 13.2004 2.20946C13.1679 2.08973 13.0906 1.98808 12.9853 1.92667C12.8801 1.86527 12.7555 1.8491 12.6387 1.8817C12.5219 1.91429 12.4224 1.993 12.3619 2.10065L11.8788 2.97353C11.8392 3.04513 11.8186 3.12615 11.819 3.2085C11.8194 3.29086 11.8408 3.37166 11.8811 3.44285C11.9214 3.51404 11.9792 3.57312 12.0487 3.6142C12.1182 3.65528 12.197 3.67691 12.2772 3.67695ZM15.0528 4.13653L14.2932 4.7682C14.2455 4.8068 14.2058 4.85473 14.1764 4.90922C14.1469 4.96371 14.1282 5.02366 14.1215 5.08561C14.1148 5.14755 14.1201 5.21025 14.1371 5.27007C14.1542 5.3299 14.1826 5.38565 14.2208 5.43409C14.259 5.48254 14.3062 5.52271 14.3596 5.55229C14.413 5.58186 14.4716 5.60025 14.532 5.60638C14.5924 5.6125 14.6534 5.60626 14.7114 5.58799C14.7694 5.56973 14.8234 5.53982 14.87 5.49998L15.6297 4.86832C15.7225 4.78919 15.7811 4.67572 15.793 4.55249C15.8048 4.42926 15.7689 4.30619 15.6931 4.20995C15.6172 4.11371 15.5075 4.05203 15.3876 4.03829C15.2678 4.02455 15.1475 4.05985 15.0529 4.13653H15.0528ZM16.8351 7.0405L15.9034 7.34405C15.8451 7.36195 15.7908 7.39158 15.7438 7.43123C15.6968 7.47088 15.6579 7.51975 15.6295 7.57499C15.601 7.63023 15.5836 7.69074 15.5781 7.75298C15.5727 7.81522 15.5793 7.87795 15.5977 7.93751C15.6161 7.99708 15.6459 8.05228 15.6853 8.09991C15.7247 8.14754 15.7729 8.18664 15.8272 8.21493C15.8814 8.24322 15.9406 8.26014 16.0013 8.26469C16.062 8.26924 16.1229 8.26134 16.1806 8.24144L17.1124 7.93789C17.2282 7.90014 17.3248 7.81664 17.3807 7.70578C17.4367 7.59493 17.4475 7.46578 17.4107 7.34676C17.3739 7.22773 17.2927 7.12858 17.1847 7.07112C17.0768 7.01366 16.951 7.00258 16.8351 7.04034V7.0405ZM8.43029 5.59709V10.0423C8.43029 10.1671 8.47859 10.2869 8.56456 10.3752C8.65053 10.4635 8.76713 10.5131 8.88871 10.5131H12.7667C12.8882 10.5131 13.0048 10.4635 13.0908 10.3752C13.1768 10.2869 13.2251 10.1671 13.2251 10.0423C13.2251 9.91741 13.1768 9.79766 13.0908 9.70936C13.0048 9.62107 12.8882 9.57147 12.7667 9.57147H9.34713V5.59709C9.34713 5.47222 9.29883 5.35247 9.21286 5.26418C9.12689 5.17589 9.01029 5.12628 8.88871 5.12628C8.76713 5.12628 8.65053 5.17589 8.56456 5.26418C8.47859 5.35247 8.43029 5.47222 8.43029 5.59709Z" fill="#4B4D5D"/>
</svg>
