<svg width="109" height="107" viewBox="0 0 109 107" fill="none" xmlns="http://www.w3.org/2000/svg">
<g filter="url(#filter0_f_1990_23300)">
<circle cx="57.533" cy="57.8923" r="38.908" fill="url(#paint0_linear_1990_23300)"/>
</g>
<g filter="url(#filter1_i_1990_23300)">
<circle cx="58" cy="50" r="40" fill="#FAFAFA"/>
</g>
<path d="M73.2648 37.0395L72.4334 37.5951L72.4334 37.5951L73.2648 37.0395ZM73.2648 58.799L72.4334 58.2435L72.4334 58.2435L73.2648 58.799ZM70.9657 61.0982L71.5213 61.9297L70.9657 61.0982ZM62.1678 62.4998L62.1635 61.4998C61.6129 61.5022 61.1678 61.9492 61.1678 62.4998H62.1678ZM62.1678 62.5024L63.0622 62.9496C63.1317 62.8107 63.1678 62.6576 63.1678 62.5024H62.1678ZM58.8956 69.0468L59.79 69.4941L58.8956 69.0468ZM57.1067 69.0468L58.0011 68.5996L57.1067 69.0468ZM53.8345 62.5024H52.8345C52.8345 62.6576 52.8706 62.8107 52.94 62.9496L53.8345 62.5024ZM53.8345 62.4998H54.8345C54.8345 61.9492 54.3894 61.5022 53.8388 61.4998L53.8345 62.4998ZM45.0395 61.0982L44.4839 61.9297L44.4839 61.9297L45.0395 61.0982ZM42.7404 58.799L43.5718 58.2435L42.7404 58.799ZM42.7404 37.0395L43.5718 37.5951L42.7404 37.0395ZM45.0395 34.7404L45.5951 35.5718L45.0395 34.7404ZM70.9657 34.7404L70.4101 35.5718L70.9657 34.7404ZM75.6693 47.9193C75.6693 45.0141 75.6705 42.76 75.4886 40.9719C75.305 39.1671 74.9266 37.7266 74.0963 36.4839L72.4334 37.5951C73.0075 38.4543 73.3313 39.5277 73.4989 41.1743C73.6681 42.8377 73.6693 44.9725 73.6693 47.9193H75.6693ZM74.0963 59.3546C74.9266 58.112 75.305 56.6714 75.4886 54.8666C75.6705 53.0786 75.6693 50.8244 75.6693 47.9193H73.6693C73.6693 50.866 73.6681 53.0009 73.4989 54.6642C73.3313 56.3109 73.0075 57.3842 72.4334 58.2435L74.0963 59.3546ZM71.5213 61.9297C72.5404 61.2487 73.4154 60.3737 74.0963 59.3546L72.4334 58.2435C71.8984 59.0442 71.2108 59.7317 70.4101 60.2667L71.5213 61.9297ZM62.1722 63.4998C64.4155 63.49 66.2185 63.4472 67.7011 63.2423C69.1997 63.0352 70.4357 62.655 71.5213 61.9297L70.4101 60.2667C69.6593 60.7684 68.7444 61.0791 67.4273 61.2612C66.094 61.4454 64.4163 61.49 62.1635 61.4998L62.1722 63.4998ZM63.1678 62.5024V62.4998H61.1678V62.5024H63.1678ZM59.79 69.4941L63.0622 62.9496L61.2734 62.0551L58.0011 68.5996L59.79 69.4941ZM56.2123 69.494C56.9493 70.9681 59.0529 70.9682 59.79 69.4941L58.0011 68.5996L58.0011 68.5996L56.2123 69.494ZM52.94 62.9496L56.2123 69.494L58.0011 68.5996L54.7289 62.0551L52.94 62.9496ZM52.8345 62.4998V62.5024H54.8345V62.4998H52.8345ZM44.4839 61.9297C45.5692 62.6548 46.8049 63.0351 48.3032 63.2422C49.7853 63.4471 51.5877 63.49 53.8301 63.4998L53.8388 61.4998C51.587 61.4899 49.9098 61.4453 48.5771 61.2611C47.2604 61.079 46.3458 60.7683 45.5951 60.2667L44.4839 61.9297ZM41.9089 59.3546C42.5898 60.3737 43.4648 61.2487 44.4839 61.9297L45.5951 60.2667C44.7944 59.7317 44.1069 59.0442 43.5718 58.2435L41.9089 59.3546ZM40.3359 47.9193C40.3359 50.8244 40.3347 53.0786 40.5166 54.8666C40.7002 56.6714 41.0786 58.112 41.9089 59.3546L43.5718 58.2435C42.9977 57.3842 42.6739 56.3109 42.5064 54.6642C42.3371 53.0009 42.3359 50.866 42.3359 47.9193H40.3359ZM41.9089 36.4839C41.0786 37.7266 40.7002 39.1671 40.5166 40.9719C40.3347 42.76 40.3359 45.0141 40.3359 47.9193H42.3359C42.3359 44.9725 42.3371 42.8377 42.5064 41.1743C42.6739 39.5277 42.9977 38.4543 43.5718 37.5951L41.9089 36.4839ZM44.4839 33.9089C43.4648 34.5898 42.5898 35.4648 41.9089 36.4839L43.5718 37.5951C44.1069 36.7944 44.7944 36.1069 45.5951 35.5718L44.4839 33.9089ZM55.9193 32.3359C53.0141 32.3359 50.76 32.3347 48.9719 32.5166C47.1671 32.7002 45.7266 33.0786 44.4839 33.9089L45.5951 35.5718C46.4543 34.9977 47.5277 34.6739 49.1743 34.5064C50.8377 34.3371 52.9725 34.3359 55.9193 34.3359V32.3359ZM60.0859 32.3359H55.9193V34.3359H60.0859V32.3359ZM71.5213 33.9089C70.2786 33.0786 68.8381 32.7002 67.0333 32.5166C65.2452 32.3347 62.9911 32.3359 60.0859 32.3359V34.3359C63.0327 34.3359 65.1675 34.3371 66.8309 34.5064C68.4775 34.6739 69.5509 34.9977 70.4101 35.5718L71.5213 33.9089ZM74.0963 36.4839C73.4154 35.4648 72.5404 34.5898 71.5213 33.9089L70.4101 35.5718C71.2108 36.1069 71.8984 36.7944 72.4334 37.5951L74.0963 36.4839Z" fill="url(#paint1_linear_1990_23300)"/>
<ellipse cx="66.3333" cy="47.9193" rx="2.08333" ry="2.08333" fill="url(#paint2_linear_1990_23300)" stroke="url(#paint3_linear_1990_23300)" stroke-width="2" stroke-linecap="round"/>
<circle cx="58.0013" cy="47.9193" r="2.08333" fill="url(#paint4_linear_1990_23300)" stroke="url(#paint5_linear_1990_23300)" stroke-width="2" stroke-linecap="round"/>
<circle cx="49.6654" cy="47.9193" r="2.08333" fill="url(#paint6_linear_1990_23300)" stroke="url(#paint7_linear_1990_23300)" stroke-width="2" stroke-linecap="round"/>
<defs>
<filter id="filter0_f_1990_23300" x="0.424999" y="0.784374" width="114.216" height="114.213" filterUnits="userSpaceOnUse" color-interpolation-filters="sRGB">
<feFlood flood-opacity="0" result="BackgroundImageFix"/>
<feBlend mode="normal" in="SourceGraphic" in2="BackgroundImageFix" result="shape"/>
<feGaussianBlur stdDeviation="9.1" result="effect1_foregroundBlur_1990_23300"/>
</filter>
<filter id="filter1_i_1990_23300" x="18" y="10" width="80" height="84" filterUnits="userSpaceOnUse" color-interpolation-filters="sRGB">
<feFlood flood-opacity="0" result="BackgroundImageFix"/>
<feBlend mode="normal" in="SourceGraphic" in2="BackgroundImageFix" result="shape"/>
<feColorMatrix in="SourceAlpha" type="matrix" values="0 0 0 0 0 0 0 0 0 0 0 0 0 0 0 0 0 0 127 0" result="hardAlpha"/>
<feMorphology radius="1" operator="dilate" in="SourceAlpha" result="effect1_innerShadow_1990_23300"/>
<feOffset dy="4"/>
<feGaussianBlur stdDeviation="3"/>
<feComposite in2="hardAlpha" operator="arithmetic" k2="-1" k3="1"/>
<feColorMatrix type="matrix" values="0 0 0 0 0.612854 0 0 0 0 0.58 0 0 0 0 0.966667 0 0 0 1 0"/>
<feBlend mode="normal" in2="shape" result="effect1_innerShadow_1990_23300"/>
</filter>
<linearGradient id="paint0_linear_1990_23300" x1="18.625" y1="57.8923" x2="99.9053" y2="57.8923" gradientUnits="userSpaceOnUse">
<stop stop-color="#FF6CAB"/>
<stop offset="1" stop-color="#7366FF"/>
</linearGradient>
<linearGradient id="paint1_linear_1990_23300" x1="41.3359" y1="51.4678" x2="76.1533" y2="51.4678" gradientUnits="userSpaceOnUse">
<stop stop-color="#FF6CAB"/>
<stop offset="1" stop-color="#7366FF"/>
</linearGradient>
<linearGradient id="paint2_linear_1990_23300" x1="64.25" y1="47.9193" x2="68.6022" y2="47.9193" gradientUnits="userSpaceOnUse">
<stop stop-color="#FF6CAB"/>
<stop offset="1" stop-color="#7366FF"/>
</linearGradient>
<linearGradient id="paint3_linear_1990_23300" x1="64.25" y1="47.9193" x2="68.6022" y2="47.9193" gradientUnits="userSpaceOnUse">
<stop stop-color="#FF6CAB"/>
<stop offset="1" stop-color="#7366FF"/>
</linearGradient>
<linearGradient id="paint4_linear_1990_23300" x1="55.918" y1="47.9193" x2="60.2701" y2="47.9193" gradientUnits="userSpaceOnUse">
<stop stop-color="#FF6CAB"/>
<stop offset="1" stop-color="#7366FF"/>
</linearGradient>
<linearGradient id="paint5_linear_1990_23300" x1="55.918" y1="47.9193" x2="60.2701" y2="47.9193" gradientUnits="userSpaceOnUse">
<stop stop-color="#FF6CAB"/>
<stop offset="1" stop-color="#7366FF"/>
</linearGradient>
<linearGradient id="paint6_linear_1990_23300" x1="47.582" y1="47.9193" x2="51.9342" y2="47.9193" gradientUnits="userSpaceOnUse">
<stop stop-color="#FF6CAB"/>
<stop offset="1" stop-color="#7366FF"/>
</linearGradient>
<linearGradient id="paint7_linear_1990_23300" x1="47.582" y1="47.9193" x2="51.9342" y2="47.9193" gradientUnits="userSpaceOnUse">
<stop stop-color="#FF6CAB"/>
<stop offset="1" stop-color="#7366FF"/>
</linearGradient>
</defs>
</svg>
