<svg width="182" height="57" viewBox="0 0 182 57" fill="none" xmlns="http://www.w3.org/2000/svg">
<g clip-path="url(#clip0_818_700)">
<path d="M78.0372 17.8113C80.3763 17.8113 82.476 18.2811 84.3363 19.2206C86.215 20.1418 87.6792 21.4222 88.7291 23.0618C89.7973 24.6831 90.3314 26.5161 90.3314 28.561C90.3314 30.5876 89.7973 32.4115 88.7291 34.0327C87.6792 35.6539 86.2242 36.9343 84.364 37.8739C82.5036 38.795 80.404 39.2556 78.0649 39.2556C75.7994 39.2556 73.7182 38.795 71.8211 37.8739C69.924 36.9343 68.4229 35.6539 67.3177 34.0327C66.2127 32.3931 65.6602 30.5692 65.6602 28.561C65.6602 26.5346 66.2127 24.7015 67.3177 23.0618C68.4229 21.4222 69.9147 20.1418 71.7935 19.2206C73.6906 18.2811 75.7717 17.8113 78.0372 17.8113ZM78.0372 36.1329C79.5291 36.1329 80.9382 35.8382 82.2642 35.2486C83.5903 34.6591 84.6586 33.7932 85.469 32.651C86.2794 31.5088 86.6846 30.1455 86.6846 28.561C86.6846 27.0136 86.2702 25.6595 85.4414 24.4988C84.631 23.3382 83.5536 22.4539 82.2089 21.846C80.8644 21.2379 79.4462 20.934 77.9544 20.934C76.3336 20.934 74.8601 21.2379 73.534 21.846C72.2262 22.4539 71.1949 23.3382 70.4397 24.4988C69.6846 25.641 69.3069 26.9952 69.3069 28.561C69.3069 30.1639 69.7029 31.5364 70.495 32.6786C71.3054 33.8209 72.3736 34.6867 73.6997 35.2762C75.0258 35.8473 76.4717 36.1329 78.0372 36.1329Z" fill="white"/>
<path d="M102.789 23.1448C104.815 23.1448 106.398 23.854 107.541 25.2725C108.701 26.6912 109.281 29.0954 109.281 32.4852V38.7029H105.827V32.568C105.827 30.6705 105.515 29.0861 104.889 27.8149C104.263 26.5254 102.964 25.8806 100.993 25.8806C98.967 25.8806 97.6225 26.5346 96.9595 27.8425C96.3148 29.1322 95.9925 30.7718 95.9925 32.7615V38.7029H92.5391V23.6421H95.9925V25.7148C97.5028 24.0014 99.7682 23.1448 102.789 23.1448Z" fill="white"/>
<path d="M130.372 31.3797H114.68C114.735 32.3193 115.003 33.2036 115.481 34.0327C115.96 34.8433 116.67 35.5064 117.609 36.0224C118.548 36.5382 119.69 36.7961 121.035 36.7961C122.196 36.7961 123.218 36.5934 124.101 36.1881C125.004 35.7644 125.695 35.2485 126.173 34.6406C126.671 34.0142 126.919 33.4155 126.919 32.8443H130.372C130.372 33.8024 130.005 34.7788 129.268 35.7736C128.531 36.7685 127.453 37.5975 126.036 38.2607C124.617 38.9239 122.932 39.2555 120.98 39.2555C119.23 39.2555 117.609 38.9148 116.117 38.2331C114.625 37.533 113.437 36.5658 112.553 35.3315C111.669 34.0787 111.227 32.6601 111.227 31.0758C111.227 29.4545 111.651 28.0267 112.498 26.7924C113.363 25.5397 114.533 24.5817 116.006 23.9185C117.498 23.2369 119.156 22.896 120.98 22.896C122.839 22.896 124.47 23.2276 125.87 23.8908C127.288 24.554 128.384 25.4936 129.157 26.7096C129.95 27.907 130.355 29.3164 130.372 30.9376V31.3797ZM121.035 25.3831C119.45 25.3831 118.171 25.7331 117.195 26.4332C116.219 27.1333 115.519 28.0544 115.095 29.1966H126.698C126.386 28.0544 125.768 27.1333 124.847 26.4332C123.945 25.7331 122.674 25.3831 121.035 25.3831Z" fill="white"/>
<path d="M145.73 23.6421H149.184V38.7028H145.73V36.6303C144.22 38.3436 141.955 39.2003 138.934 39.2003C136.909 39.2003 135.315 38.491 134.155 37.0724C133.012 35.6539 132.441 33.2497 132.441 29.8599V23.6421H135.895V29.7769C135.895 31.6745 136.208 33.2681 136.835 34.5576C137.461 35.8288 138.759 36.4645 140.73 36.4645C142.756 36.4645 144.092 35.8197 144.736 34.53C145.399 33.2221 145.73 31.5732 145.73 29.5835V23.6421Z" fill="white"/>
<path d="M175.494 23.1448C176.986 23.1448 178.201 23.4487 179.141 24.0567C180.099 24.6646 180.808 25.6503 181.268 27.0136C181.747 28.3769 181.986 30.2007 181.986 32.4852V38.7029H178.561V32.568C178.561 30.8179 178.183 29.2612 177.428 27.8979C176.673 26.5346 175.365 25.853 173.505 25.853C172.16 25.853 171.129 26.1476 170.411 26.7372C169.711 27.3083 169.241 28.0637 169.001 29.0033C168.762 29.9428 168.642 31.1034 168.642 32.4852V38.7029H165.161V32.568C165.161 30.7627 164.821 29.1967 164.139 27.8703C163.476 26.5254 162.233 25.853 160.41 25.853C158.77 25.853 157.573 26.1845 156.818 26.8477C156.081 27.4925 155.621 28.3585 155.436 29.4454C155.252 30.5324 155.16 32.0983 155.16 34.1433V38.7029H151.68V23.6421H154.249L155.16 25.7976V25.9358C156.744 24.0751 159.093 23.1448 162.205 23.1448C163.624 23.1448 164.766 23.4211 165.631 23.9737C166.515 24.5264 167.197 25.42 167.675 26.6543C168.339 25.4015 169.306 24.508 170.577 23.9737C171.848 23.4211 173.486 23.1448 175.494 23.1448Z" fill="white"/>
<path d="M19.0692 9.38966L9.34445 19.1168C4.18365 24.2789 4.18365 32.6483 9.34445 37.8104L19.1235 47.5919C24.2843 52.754 32.6516 52.754 37.8124 47.5919L47.5371 37.8647C52.6979 32.7026 52.6979 24.3332 47.5371 19.1711L37.7581 9.38966C32.5973 4.22757 24.23 4.22757 19.0692 9.38966Z" fill="url(#paint0_linear_818_700)"/>
<path d="M23.743 16.2369L16.1371 23.8447C13.5567 26.4257 13.5567 30.6104 16.1371 33.1915L23.743 40.7993C26.3234 43.3803 30.507 43.3803 33.0874 40.7993L40.6933 33.1915C43.2737 30.6104 43.2737 26.4257 40.6933 23.8447L33.0874 16.2369C30.507 13.6558 26.3234 13.6558 23.743 16.2369Z" fill="url(#paint1_linear_818_700)"/>
<path d="M22.7636 30.8003L26.0776 34.1151C27.3378 35.3756 29.381 35.3756 30.6412 34.1151L34.0638 30.6916C35.324 29.4311 35.324 27.3874 34.0638 26.1269L30.7498 22.8121C29.4896 21.5516 27.4464 21.5516 26.1863 22.8121L22.7636 26.2356C21.5034 27.4961 21.5034 29.5398 22.7636 30.8003Z" fill="#1A1A1A"/>
</g>
<defs>
<linearGradient id="paint0_linear_818_700" x1="14.2068" y1="14.2532" x2="42.6819" y2="42.7212" gradientUnits="userSpaceOnUse">
<stop stop-color="#C9FB00"/>
<stop offset="1" stop-color="#ABFB00"/>
</linearGradient>
<linearGradient id="paint1_linear_818_700" x1="19.94" y1="20.0407" x2="36.8946" y2="36.9911" gradientUnits="userSpaceOnUse">
<stop stop-color="#AFFC01"/>
<stop offset="0.484318" stop-color="#BCFC01"/>
<stop offset="1" stop-color="#C9FB00"/>
</linearGradient>
<clipPath id="clip0_818_700">
<rect width="182" height="57" fill="white"/>
</clipPath>
</defs>
</svg>
