<svg width="32" height="32" viewBox="0 0 32 32" fill="none" xmlns="http://www.w3.org/2000/svg">
<path d="M25.7685 7.70623C26.6673 9.05142 26.6673 10.924 26.6673 14.6693C26.6673 18.4145 26.6673 20.2871 25.7685 21.6323C25.3794 22.2147 24.8794 22.7147 24.297 23.1038C23.1219 23.889 21.5443 23.9882 18.6673 24.0008V24.0026L17.1932 26.9508C16.7019 27.9335 15.2994 27.9335 14.8081 26.9508L13.334 24.0026V24.0008C10.457 23.9882 8.87941 23.889 7.70428 23.1038C7.12193 22.7147 6.62193 22.2147 6.23281 21.6323C5.33398 20.2871 5.33398 18.4145 5.33398 14.6693C5.33398 10.924 5.33398 9.05142 6.23281 7.70623C6.62193 7.12388 7.12193 6.62388 7.70428 6.23477C9.04947 5.33594 10.9221 5.33594 14.6673 5.33594H17.334C21.0792 5.33594 22.9518 5.33594 24.297 6.23477C24.8794 6.62388 25.3794 7.12388 25.7685 7.70623Z" stroke="#282828" stroke-width="3" stroke-linecap="round" stroke-linejoin="round"/>
<path d="M12 12L20 12" stroke="#282828" stroke-width="3" stroke-linecap="round" stroke-linejoin="round"/>
<path d="M12 16H16" stroke="#282828" stroke-width="3" stroke-linecap="round" stroke-linejoin="round"/>
</svg>
