<svg width="32" height="32" viewBox="0 0 32 32" fill="none" xmlns="http://www.w3.org/2000/svg">
<path d="M25.2319 7.66078L16.9841 4.12604C16.3553 3.85653 15.6434 3.85653 15.0145 4.12604L6.76684 7.66078C5.74279 8.09965 5.13275 9.1632 5.27094 10.2687L6.21726 17.8393C6.45314 19.7263 7.39704 21.4532 8.85796 22.6707L14.3989 27.2881C15.326 28.0607 16.6727 28.0607 17.5998 27.2881L23.1407 22.6707C24.6017 21.4532 25.5456 19.7263 25.7814 17.8393L26.7278 10.2687C26.8659 9.1632 26.2559 8.09965 25.2319 7.66078Z" stroke="#282828" stroke-width="3" stroke-linecap="round"/>
<path d="M12.0007 16L15.5694 19.5687C15.7925 19.7918 16.1639 19.7551 16.339 19.4925L21.334 12" stroke="#282828" stroke-width="3" stroke-linecap="round"/>
</svg>
