<svg width="32" height="32" viewBox="0 0 32 32" fill="none" xmlns="http://www.w3.org/2000/svg">
<path d="M6.66797 17.3333V4.5C6.66797 4.2643 6.66797 4.14645 6.74119 4.07322C6.81442 4 6.93227 4 7.16797 4H12.9305C13.13 4 13.2298 4 13.3199 4.03643C13.41 4.07286 13.4818 4.14219 13.6253 4.28084L15.804 6.38583C15.9475 6.52448 16.0192 6.5938 16.1094 6.63023C16.1995 6.66667 16.2993 6.66667 16.4988 6.66667H25.0779C25.3206 6.66667 25.442 6.66667 25.4846 6.74484C25.5273 6.82302 25.4616 6.92504 25.3302 7.1291L21.509 13.0626C21.4243 13.1941 21.382 13.2598 21.382 13.3333C21.382 13.4069 21.4243 13.4726 21.509 13.6041L25.3302 19.5376C25.4616 19.7416 25.5273 19.8437 25.4846 19.9218C25.442 20 25.3206 20 25.0779 20H16.4988C16.2993 20 16.1995 20 16.1094 19.9636C16.0192 19.9271 15.9475 19.8578 15.804 19.7192L13.6253 17.6142C13.4818 17.4755 13.41 17.4062 13.3199 17.3698C13.2298 17.3333 13.13 17.3333 12.9305 17.3333H6.66797ZM6.66797 17.3333V25.3333" stroke="#282828" stroke-width="3" stroke-linecap="round"/>
</svg>
