<svg width="32" height="32" viewBox="0 0 32 32" fill="none" xmlns="http://www.w3.org/2000/svg">
<path d="M18.8456 4.47922H17.3456V4.55403L17.353 4.62847L18.8456 4.47922ZM18.8456 4.4792H20.3456V4.40438L20.3381 4.32994L18.8456 4.4792ZM19.2386 6.42056L18.0458 7.33007V7.33007L19.2386 6.42056ZM20.4769 6.9335L20.6772 8.42006H20.6772L20.4769 6.9335ZM22.1274 5.83874L23.0773 6.99968L23.0773 6.99968L22.1274 5.83874ZM23.0436 5.2097L22.5869 3.78092L22.5869 3.78092L23.0436 5.2097ZM23.9799 5.2564L23.3833 6.63265L23.3833 6.63265L23.9799 5.2564ZM24.829 5.97348L23.7683 7.03414L23.7683 7.03414L24.829 5.97348ZM26.0204 7.16497L24.9598 8.22563V8.22563L26.0204 7.16497ZM26.7378 8.01438L25.3614 8.61077L25.3614 8.61078L26.7378 8.01438ZM26.7845 8.95027L28.2133 9.40676V9.40676L26.7845 8.95027ZM26.1552 9.86685L24.9943 8.91699V8.91699L26.1552 9.86685ZM25.0601 11.518L23.5735 11.318V11.318L25.0601 11.518ZM25.5728 12.7559L26.4826 11.5633L26.4826 11.5633L25.5728 12.7559ZM28.6087 13.3525L29.2965 12.0194L29.2965 12.0194L28.6087 13.3525ZM29.2373 14.047L30.6321 13.4953L30.6321 13.4953L29.2373 14.047ZM29.2375 17.9472L30.6326 18.4983L30.6326 18.4983L29.2375 17.9472ZM28.6082 18.6426L29.2953 19.976L29.2954 19.976L28.6082 18.6426ZM27.516 18.8455L27.3668 17.353H27.3668L27.516 18.8455ZM25.5756 19.2383L26.4848 20.4313L25.5756 19.2383ZM25.0625 20.4771L23.576 20.6778V20.6778L25.0625 20.4771ZM26.1572 22.1273L27.3572 21.2273L27.3381 21.2019L27.3181 21.1774L26.1572 22.1273ZM26.1572 22.1273L24.9572 23.0273L24.9762 23.0527L24.9962 23.0772L26.1572 22.1273ZM26.7864 23.0438L25.3576 23.5004L25.3576 23.5004L26.7864 23.0438ZM26.7397 23.9799L25.3635 23.3834L25.3635 23.3834L26.7397 23.9799ZM26.0226 24.8291L27.0832 25.8898V25.8898L26.0226 24.8291ZM24.8315 26.0202L23.7708 24.9595V24.9595L24.8315 26.0202ZM23.9813 26.738L23.3854 25.3615L23.3854 25.3615L23.9813 26.738ZM23.0462 26.7847L23.5023 25.3557L23.5023 25.3557L23.0462 26.7847ZM22.1289 26.155L21.0682 27.2157L21.1211 27.2686L21.179 27.3159L22.1289 26.155ZM22.1289 26.155L23.1895 25.0943L23.1366 25.0414L23.0787 24.994L22.1289 26.155ZM20.4762 25.0591L20.6755 23.5724L20.4762 25.0591ZM19.2393 25.5714L18.0471 24.6611L18.0471 24.6611L19.2393 25.5714ZM18.8456 27.515L20.3382 27.6642L18.8456 27.515ZM18.6422 28.609L19.9751 29.297L19.9751 29.297L18.6422 28.609ZM17.948 29.2372L18.5 30.6319L17.948 29.2372ZM14.047 29.2373L14.5987 27.8424L14.5987 27.8424L14.047 29.2373ZM13.3524 28.6087L12.0194 29.2964L12.0194 29.2965L13.3524 28.6087ZM13.1492 27.5153L14.6417 27.366V27.366L13.1492 27.5153ZM12.7558 25.5728L13.9482 24.6628L13.9482 24.6628L12.7558 25.5728ZM11.5183 25.0602L11.3186 23.5735L11.3186 23.5735L11.5183 25.0602ZM9.86644 26.1557L10.7487 27.3688L10.7832 27.3436L10.8163 27.3166L9.86644 26.1557ZM9.86642 26.1557L8.98417 24.9426L8.92477 24.9858L8.86988 25.0346L9.86642 26.1557ZM9.86641 26.1557L10.8163 27.3166L10.84 27.2972L10.863 27.2768L9.86641 26.1557ZM8.94933 26.7852L9.40554 28.2142L9.40555 28.2142L8.94933 26.7852ZM8.0139 26.7386L7.41775 28.115L7.41776 28.115L8.0139 26.7386ZM7.16404 26.0209L6.10338 27.0816L6.10338 27.0816L7.16404 26.0209ZM5.97299 24.8299L4.91233 25.8905H4.91233L5.97299 24.8299ZM5.25559 23.9804L3.87923 24.5767L3.87923 24.5767L5.25559 23.9804ZM5.20892 23.0446L3.78005 22.5881L3.78005 22.5881L5.20892 23.0446ZM5.83833 22.1278L4.67739 21.1779L5.83833 22.1278ZM6.93339 20.4768L5.44682 20.2766L5.44682 20.2766L6.93339 20.4768ZM6.4205 19.2386L7.33008 18.0458H7.33008L6.4205 19.2386ZM4.47912 18.8456L4.62838 17.353L4.55394 17.3456H4.47912V18.8456ZM4.47911 18.8456L4.23979 20.3264L4.35868 20.3456H4.47911V18.8456ZM4.47907 18.8456L4.71839 17.3648L4.67353 17.3575L4.62832 17.353L4.47907 18.8456ZM3.38636 18.6425L4.07378 17.3093L4.07378 17.3093L3.38636 18.6425ZM2.7574 17.9475L1.3624 18.4988H1.3624L2.7574 17.9475ZM2.75763 14.0467L4.15237 14.5987L4.15237 14.5987L2.75763 14.0467ZM3.38581 13.3526L4.07384 14.6855L4.07385 14.6855L3.38581 13.3526ZM4.48009 13.1491L4.62934 14.6417L4.67337 14.6373L4.71707 14.6303L4.48009 13.1491ZM4.48011 13.1491L4.33085 11.6566L4.28682 11.661L4.24312 11.668L4.48011 13.1491ZM6.42318 12.7557L5.51319 11.5632H5.51319L6.42318 12.7557ZM6.93576 11.5182L8.42241 11.3185L6.93576 11.5182ZM5.84033 9.86641L4.6794 10.8163V10.8163L5.84033 9.86641ZM5.21089 8.94951L3.78198 9.40581V9.40581L5.21089 8.94951ZM5.25755 8.01393L3.88114 7.41772L3.88114 7.41772L5.25755 8.01393ZM5.97511 7.16422L7.03577 8.22488L7.03577 8.22488L5.97511 7.16422ZM7.1666 5.97273L6.10594 4.91207H6.10594L7.1666 5.97273ZM8.01534 5.25586L8.61212 6.63204V6.63204L8.01534 5.25586ZM8.95193 5.20915L8.49505 6.63788L8.95193 5.20915ZM9.8678 5.83801L8.91795 6.99895L8.97472 7.0454L9.03575 7.08609L9.8678 5.83801ZM9.86781 5.83801L10.8177 4.67708L10.7609 4.63063L10.6999 4.58994L9.86781 5.83801ZM11.5177 6.93245L11.7183 5.44593H11.7183L11.5177 6.93245ZM12.7565 6.41933L11.5635 5.51007V5.51007L12.7565 6.41933ZM13.1493 4.47882L14.6418 4.62808L14.6493 4.55364V4.47882H13.1493ZM13.1493 4.47881L11.6567 4.32955L11.6493 4.40399V4.47881H13.1493ZM13.3522 3.38657L12.0189 2.69939L12.0189 2.69939L13.3522 3.38657ZM14.0475 2.75731L14.5986 4.15241L14.5986 4.15241L14.0475 2.75731ZM17.9475 2.75741L18.4989 1.36243L18.4989 1.36243L17.9475 2.75741ZM18.6425 3.38633L19.9757 2.69888V2.69887L18.6425 3.38633ZM20.3456 4.47922V4.4792H17.3456V4.47922H20.3456ZM20.4314 5.51106C20.5405 5.65419 20.5192 5.73565 20.4736 5.48201C20.4305 5.24271 20.3954 4.90218 20.3381 4.32996L17.353 4.62847C17.4052 5.15037 17.4521 5.63042 17.521 6.01323C17.5873 6.38169 17.7078 6.88677 18.0458 7.33007L20.4314 5.51106ZM20.2766 5.44694C20.336 5.43894 20.3951 5.46342 20.4314 5.51106L18.0458 7.33007C18.6633 8.13993 19.6679 8.55608 20.6772 8.42006L20.2766 5.44694ZM21.1776 4.67781C20.7325 5.04194 20.4669 5.25784 20.2673 5.39659C20.0557 5.54364 20.0982 5.47097 20.2766 5.44694L20.6772 8.42006C21.2297 8.34562 21.672 8.07368 21.9794 7.86002C22.2988 7.63805 22.6714 7.33178 23.0773 6.99968L21.1776 4.67781ZM22.5869 3.78092C22.2584 3.88592 21.998 4.04758 21.793 4.19365C21.6002 4.33104 21.3869 4.50651 21.1776 4.67781L23.0773 6.99968C23.3175 6.80316 23.4414 6.70275 23.5338 6.63691C23.6141 6.57974 23.587 6.61079 23.5003 6.63849L22.5869 3.78092ZM24.5765 3.88015C23.9472 3.60734 23.2403 3.57208 22.5869 3.78092L23.5003 6.63849C23.4619 6.65077 23.4203 6.6487 23.3833 6.63265L24.5765 3.88015ZM25.8896 4.91282C25.6983 4.72154 25.5036 4.52573 25.3254 4.36983C25.136 4.20409 24.8929 4.01731 24.5765 3.88015L23.3833 6.63265C23.2998 6.59647 23.276 6.56287 23.3501 6.62774C23.4355 6.70246 23.5488 6.81469 23.7683 7.03414L25.8896 4.91282ZM27.0811 6.10431L25.8896 4.91282L23.7683 7.03414L24.9598 8.22563L27.0811 6.10431ZM28.1141 7.41799C27.9769 7.10143 27.7901 6.85827 27.6243 6.66873C27.4683 6.49046 27.2725 6.29567 27.0811 6.10431L24.9598 8.22563C25.1793 8.44517 25.2916 8.55855 25.3663 8.64399C25.4312 8.71816 25.3976 8.69426 25.3614 8.61077L28.1141 7.41799ZM28.2133 9.40676C28.422 8.75367 28.3867 8.04707 28.1141 7.41798L25.3614 8.61078C25.3454 8.57377 25.3433 8.53221 25.3556 8.49379L28.2133 9.40676ZM27.3161 10.8167C27.4875 10.6073 27.663 10.3939 27.8005 10.201C27.9466 9.99593 28.1083 9.73539 28.2133 9.40676L25.3556 8.49379C25.3833 8.40711 25.4144 8.37999 25.3572 8.46026C25.2913 8.55271 25.1909 8.6767 24.9943 8.91699L27.3161 10.8167ZM26.5467 11.718C26.5227 11.8965 26.45 11.939 26.5971 11.7274C26.7359 11.5277 26.9519 11.2619 27.3161 10.8167L24.9943 8.91699C24.662 9.32305 24.3556 9.69579 24.1336 10.0153C23.9198 10.3228 23.6478 10.7653 23.5735 11.318L26.5467 11.718ZM26.4826 11.5633C26.5302 11.5996 26.5547 11.6587 26.5467 11.718L23.5735 11.318C23.4377 12.3269 23.8537 13.3311 24.6631 13.9485L26.4826 11.5633ZM27.6644 11.6566C27.0918 11.5994 26.7511 11.5642 26.5117 11.5211C26.2579 11.4754 26.3394 11.4541 26.4826 11.5633L24.6631 13.9485C25.1065 14.2868 25.6118 14.4073 25.9804 14.4737C26.3634 14.5426 26.8437 14.5895 27.3658 14.6417L27.6644 11.6566ZM29.2965 12.0194C28.9898 11.8612 28.691 11.7912 28.4426 11.7495C28.2089 11.7103 27.9338 11.6836 27.6644 11.6566L27.3658 14.6417C27.6749 14.6726 27.8338 14.6893 27.9458 14.7081C28.0431 14.7244 28.0019 14.7272 27.921 14.6855L29.2965 12.0194ZM30.6321 13.4953C30.3801 12.858 29.9056 12.3337 29.2965 12.0194L27.921 14.6855C27.8852 14.667 27.8572 14.6362 27.8424 14.5987L30.6321 13.4953ZM30.8307 15.1553C30.8307 14.8845 30.8315 14.6082 30.8157 14.3717C30.7989 14.1204 30.7591 13.8162 30.6321 13.4953L27.8424 14.5987C27.8089 14.514 27.8158 14.4733 27.8224 14.5717C27.83 14.685 27.8307 14.8447 27.8307 15.1553H30.8307ZM30.8307 16.8403V15.1553H27.8307V16.8403H30.8307ZM30.6326 18.4983C30.7592 18.1777 30.799 17.8739 30.8157 17.6229C30.8315 17.3867 30.8307 17.1107 30.8307 16.8403H27.8307C27.8307 17.1505 27.83 17.3099 27.8224 17.4231C27.8158 17.5214 27.809 17.4807 27.8424 17.3962L30.6326 18.4983ZM29.2954 19.976C29.9053 19.6616 30.3805 19.1366 30.6326 18.4983L27.8424 17.3962C27.8572 17.3586 27.8852 17.3278 27.921 17.3093L29.2954 19.976ZM27.6653 20.3381C27.9343 20.3112 28.2091 20.2845 28.4425 20.2453C28.6906 20.2037 28.9889 20.1339 29.2953 19.976L27.9211 17.3093C28.0019 17.2676 28.043 17.2704 27.9459 17.2867C27.834 17.3055 27.6754 17.3221 27.3668 17.353L27.6653 20.3381ZM26.4848 20.4313C26.3418 20.5403 26.2604 20.519 26.5138 20.4734C26.753 20.4304 27.0933 20.3953 27.6653 20.3381L27.3668 17.353C26.8451 17.4051 26.3653 17.452 25.9827 17.5208C25.6144 17.5871 25.1096 17.7075 24.6664 18.0452L26.4848 20.4313ZM26.549 20.2764C26.557 20.3358 26.5325 20.395 26.4848 20.4313L24.6664 18.0452C23.856 18.6629 23.4396 19.668 23.576 20.6778L26.549 20.2764ZM27.3181 21.1774C26.954 20.7325 26.7381 20.4668 26.5994 20.2672C26.4523 20.0556 26.5249 20.0981 26.549 20.2764L23.576 20.6778C23.6505 21.2301 23.9224 21.6722 24.136 21.9795C24.3579 22.2988 24.6642 22.6713 24.9962 23.0771L27.3181 21.1774ZM27.3572 21.2273L27.3572 21.2273L24.9572 23.0273L24.9572 23.0273L27.3572 21.2273ZM28.2152 22.5872C28.1102 22.2586 27.9485 21.9981 27.8024 21.7931C27.665 21.6002 27.4895 21.3869 27.3181 21.1775L24.9962 23.0772C25.1928 23.3174 25.2933 23.4415 25.3592 23.5339C25.4164 23.6142 25.3853 23.5871 25.3576 23.5004L28.2152 22.5872ZM28.116 24.5765C28.3887 23.9472 28.424 23.2404 28.2152 22.5872L25.3576 23.5004C25.3453 23.462 25.3474 23.4204 25.3635 23.3834L28.116 24.5765ZM27.0832 25.8898C27.2745 25.6985 27.4704 25.5037 27.6263 25.3255C27.7921 25.136 27.9789 24.8929 28.116 24.5765L25.3635 23.3834C25.3996 23.2999 25.4332 23.2761 25.3684 23.3502C25.2936 23.4356 25.1814 23.549 24.9619 23.7685L27.0832 25.8898ZM25.8922 27.0808L27.0832 25.8898L24.9619 23.7685L23.7708 24.9595L25.8922 27.0808ZM24.5773 28.1146C24.8942 27.9774 25.1376 27.7904 25.3273 27.6245C25.5057 27.4684 25.7006 27.2724 25.8922 27.0808L23.7708 24.9595C23.5511 25.1792 23.4376 25.2916 23.3521 25.3664C23.2779 25.4314 23.3018 25.3977 23.3854 25.3615L24.5773 28.1146ZM22.5902 28.2137C23.2428 28.4219 23.9487 28.3867 24.5773 28.1146L23.3854 25.3615C23.4224 25.3455 23.4639 25.3434 23.5023 25.3557L22.5902 28.2137ZM21.179 27.3159C21.3887 27.4874 21.6021 27.6631 21.7952 27.8007C22.0005 27.9469 22.2613 28.1087 22.5902 28.2137L23.5023 25.3557C23.589 25.3834 23.6162 25.4145 23.5358 25.3573C23.4433 25.2913 23.3192 25.1908 23.0787 24.994L21.179 27.3159ZM21.0682 27.2156L21.0682 27.2157L23.1895 25.0943L23.1895 25.0943L21.0682 27.2156ZM20.2769 26.5458C20.0983 26.5219 20.0557 26.449 20.2676 26.5963C20.4674 26.7352 20.7334 26.9513 21.179 27.3159L23.0787 24.994C22.6723 24.6615 22.2993 24.3549 21.9795 24.1327C21.6717 23.9188 21.2287 23.6466 20.6755 23.5724L20.2769 26.5458ZM20.4315 26.4818C20.3952 26.5293 20.3362 26.5537 20.2769 26.5458L20.6755 23.5724C19.6675 23.4373 18.6644 23.8528 18.0471 24.6611L20.4315 26.4818ZM20.3382 27.6642C20.3955 27.0913 20.4307 26.7504 20.4738 26.5108C20.5195 26.2569 20.5409 26.3385 20.4315 26.4818L18.0471 24.6611C17.7084 25.1047 17.5877 25.6104 17.5213 25.9793C17.4523 26.3626 17.4053 26.8432 17.3531 27.3657L20.3382 27.6642ZM19.9751 29.297C20.1335 28.9901 20.2035 28.6913 20.2452 28.4427C20.2845 28.2089 20.3112 27.9337 20.3382 27.6642L17.3531 27.3657C17.3222 27.6749 17.3055 27.8337 17.2867 27.9458C17.2703 28.0431 17.2675 28.0019 17.3093 27.921L19.9751 29.297ZM18.5 30.6319C19.1369 30.3799 19.661 29.9056 19.9751 29.297L17.3093 27.9209C17.3278 27.8852 17.3586 27.8573 17.3961 27.8424L18.5 30.6319ZM16.8392 30.8307C17.1101 30.8307 17.3866 30.8315 17.6231 30.8157C17.8746 30.7989 18.1789 30.759 18.5 30.6319L17.3961 27.8424C17.4808 27.8089 17.5215 27.8158 17.4231 27.8224C17.3097 27.83 17.15 27.8307 16.8392 27.8307V30.8307ZM15.1552 30.8307H16.8392V27.8307H15.1552V30.8307ZM13.4953 30.6321C13.8162 30.7591 14.1204 30.7989 14.3717 30.8157C14.6082 30.8315 14.8845 30.8307 15.1552 30.8307V27.8307C14.8446 27.8307 14.685 27.83 14.5717 27.8224C14.4733 27.8158 14.514 27.8089 14.5987 27.8424L13.4953 30.6321ZM12.0194 29.2965C12.3336 29.9055 12.858 30.3801 13.4953 30.6321L14.5987 27.8424C14.6362 27.8572 14.667 27.8852 14.6855 27.921L12.0194 29.2965ZM11.6566 27.6646C11.6836 27.9339 11.7103 28.209 11.7495 28.4426C11.7913 28.6911 11.8612 28.9897 12.0194 29.2964L14.6855 27.921C14.7272 28.0019 14.7244 28.043 14.7081 27.9458C14.6893 27.8338 14.6726 27.6751 14.6417 27.366L11.6566 27.6646ZM11.5633 26.4827C11.4541 26.3396 11.4754 26.258 11.5211 26.5118C11.5642 26.7512 11.5994 27.092 11.6566 27.6646L14.6417 27.366C14.5895 26.8438 14.5426 26.3634 14.4737 25.9804C14.4073 25.6117 14.2867 25.1063 13.9482 24.6628L11.5633 26.4827ZM11.718 26.5468C11.6587 26.5548 11.5997 26.5303 11.5633 26.4827L13.9482 24.6628C13.3309 23.8538 12.3271 23.438 11.3186 23.5735L11.718 26.5468ZM10.8163 27.3166C11.2617 26.9522 11.5276 26.7361 11.7274 26.5972C11.9391 26.4501 11.8965 26.5228 11.718 26.5468L11.3186 23.5735C10.7657 23.6478 10.323 23.9199 10.0153 24.1337C9.69569 24.3558 9.32281 24.6624 8.91658 24.9947L10.8163 27.3166ZM10.7487 27.3688L10.7487 27.3688L8.98418 24.9426L8.98417 24.9426L10.7487 27.3688ZM10.863 27.2768L10.863 27.2768L8.86988 25.0346L8.86987 25.0346L10.863 27.2768ZM9.40555 28.2142C9.73437 28.1092 9.99506 27.9474 10.2003 27.8012C10.3933 27.6637 10.6067 27.4881 10.8163 27.3166L8.91656 24.9947C8.67614 25.1915 8.55207 25.292 8.45956 25.3579C8.37924 25.4151 8.40637 25.384 8.4931 25.3563L9.40555 28.2142ZM7.41776 28.115C8.04657 28.3874 8.75276 28.4226 9.40554 28.2142L8.49311 25.3563C8.53151 25.344 8.57305 25.3461 8.61003 25.3621L7.41776 28.115ZM6.10338 27.0816C6.29484 27.2731 6.48972 27.469 6.66809 27.6251C6.85773 27.7909 7.10101 27.9779 7.41775 28.115L8.61004 25.3621C8.69357 25.3983 8.71748 25.432 8.64327 25.367C8.55779 25.2923 8.44435 25.1799 8.2247 24.9603L6.10338 27.0816ZM4.91233 25.8905L6.10338 27.0816L8.2247 24.9603L7.03365 23.7692L4.91233 25.8905ZM3.87923 24.5767C4.0164 24.8933 4.20326 25.1365 4.36907 25.3261C4.52504 25.5044 4.72095 25.6992 4.91233 25.8905L7.03365 23.7692C6.81409 23.5497 6.7018 23.4363 6.62705 23.3508C6.56215 23.2766 6.59577 23.3005 6.63195 23.384L3.87923 24.5767ZM3.78005 22.5881C3.57145 23.2412 3.60668 23.9477 3.87923 24.5767L6.63195 23.384C6.64798 23.421 6.65006 23.4626 6.63779 23.501L3.78005 22.5881ZM4.67739 21.1779C4.50597 21.3874 4.3304 21.6008 4.19293 21.7937C4.0468 21.9989 3.88504 22.2594 3.78005 22.5881L6.63779 23.501C6.61009 23.5877 6.579 23.6148 6.63623 23.5345C6.70212 23.442 6.80261 23.318 6.99926 23.0776L4.67739 21.1779ZM5.44682 20.2766C5.47085 20.0982 5.54355 20.0556 5.39642 20.2673C5.25761 20.467 5.04163 20.7328 4.67739 21.1779L6.99926 23.0776C7.33147 22.6716 7.63782 22.2989 7.85984 21.9795C8.07353 21.672 8.34554 21.2296 8.41997 20.6771L5.44682 20.2766ZM5.51093 20.4314C5.4633 20.395 5.43882 20.336 5.44682 20.2766L8.41997 20.6771C8.55591 19.6679 8.13982 18.6633 7.33008 18.0458L5.51093 20.4314ZM4.32986 20.3381C4.90209 20.3953 5.24262 20.4305 5.48191 20.4736C5.73553 20.5192 5.65405 20.5405 5.51093 20.4314L7.33008 18.0458C6.88676 17.7078 6.38166 17.5873 6.01317 17.521C5.63035 17.4521 5.15028 17.4052 4.62838 17.353L4.32986 20.3381ZM4.47911 20.3456H4.47912V17.3456H4.47911V20.3456ZM4.23975 20.3263L4.23979 20.3264L4.71843 17.3648L4.71839 17.3648L4.23975 20.3263ZM2.69893 19.9757C3.00547 20.1338 3.30397 20.2036 3.55224 20.2453C3.78576 20.2845 4.06063 20.3112 4.32982 20.3381L4.62832 17.353C4.3195 17.3221 4.16085 17.3055 4.04895 17.2867C3.95179 17.2704 3.99293 17.2676 4.07378 17.3093L2.69893 19.9757ZM1.3624 18.4988C1.61449 19.1367 2.08937 19.6614 2.69893 19.9757L4.07378 17.3093C4.10963 17.3278 4.13757 17.3586 4.1524 17.3962L1.3624 18.4988ZM1.16406 16.84C1.16406 17.1105 1.16329 17.3867 1.17906 17.6229C1.19583 17.8741 1.23563 18.1781 1.3624 18.4988L4.1524 17.3962C4.18583 17.4807 4.17896 17.5214 4.1724 17.4231C4.16484 17.3099 4.16406 17.1503 4.16406 16.84H1.16406ZM1.16406 15.1556V16.84H4.16406V15.1556H1.16406ZM1.36289 13.4947C1.23581 13.8158 1.19591 14.1201 1.1791 14.3716C1.16329 14.6082 1.16406 14.8847 1.16406 15.1556H4.16406C4.16406 14.8448 4.16484 14.6851 4.17242 14.5717C4.179 14.4733 4.18588 14.514 4.15237 14.5987L1.36289 13.4947ZM2.69777 12.0197C2.08915 12.3339 1.61493 12.8579 1.36288 13.4947L4.15237 14.5987C4.13754 14.6362 4.10965 14.667 4.07384 14.6855L2.69777 12.0197ZM4.33084 11.6566C4.06122 11.6835 3.78596 11.7103 3.55213 11.7495C3.30355 11.7913 3.00466 11.8613 2.69777 12.0197L4.07385 14.6855C3.99288 14.7273 3.95168 14.7245 4.04903 14.7081C4.16113 14.6893 4.32005 14.6726 4.62934 14.6417L4.33084 11.6566ZM4.24312 11.668L4.2431 11.668L4.71707 14.6303L4.71709 14.6303L4.24312 11.668ZM5.51319 11.5632C5.65641 11.4539 5.73798 11.4753 5.48405 11.521C5.24451 11.5641 4.90362 11.5993 4.33085 11.6566L4.62936 14.6417C5.15177 14.5894 5.63226 14.5425 6.01539 14.4736C6.38412 14.4072 6.88964 14.2866 7.33318 13.9481L5.51319 11.5632ZM5.44912 11.7179C5.44115 11.6586 5.4656 11.5995 5.51319 11.5632L7.33318 13.9481C8.14213 13.3308 8.55789 12.327 8.42241 11.3185L5.44912 11.7179ZM4.6794 10.8163C5.0438 11.2616 5.25986 11.5275 5.3987 11.7272C5.54585 11.939 5.4731 11.8964 5.44912 11.7179L8.42241 11.3185C8.34813 10.7656 8.07604 10.3229 7.86223 10.0152C7.64012 9.69562 7.33362 9.32275 7.00127 8.91655L4.6794 10.8163ZM3.78198 9.40581C3.88697 9.73457 4.04873 9.99521 4.19489 10.2004C4.33238 10.3934 4.50797 10.6067 4.6794 10.8163L7.00127 8.91655C6.8046 8.67618 6.70412 8.55214 6.63823 8.45966C6.58103 8.37936 6.61212 8.4065 6.6398 8.4932L3.78198 9.40581ZM3.88114 7.41772C3.60872 8.04661 3.57349 8.75293 3.78198 9.40581L6.6398 8.49321C6.65207 8.53161 6.65 8.57316 6.63397 8.61015L3.88114 7.41772ZM4.91445 6.10356C4.72302 6.29498 4.52707 6.48984 4.37106 6.66818C4.20521 6.85778 4.01832 7.10103 3.88114 7.41772L6.63397 8.61015C6.59779 8.69367 6.56416 8.71758 6.62907 8.64338C6.70383 8.55791 6.81616 8.44449 7.03577 8.22488L4.91445 6.10356ZM6.10594 4.91207L4.91445 6.10356L7.03577 8.22488L8.22726 7.03339L6.10594 4.91207ZM7.41856 3.87969C7.10228 4.01685 6.85932 4.20357 6.66994 4.36926C6.4918 4.52511 6.29715 4.72085 6.10594 4.91207L8.22726 7.03339C8.44663 6.81402 8.55992 6.70182 8.6453 6.62713C8.71942 6.56228 8.69554 6.59586 8.61212 6.63204L7.41856 3.87969ZM9.40881 3.78043C8.75526 3.57143 8.04807 3.6067 7.41856 3.87969L8.61212 6.63204C8.57509 6.6481 8.53349 6.65017 8.49505 6.63788L9.40881 3.78043ZM10.8177 4.67708C10.6084 4.50583 10.3952 4.33043 10.2024 4.19308C9.99751 4.04706 9.73718 3.88543 9.40881 3.78043L8.49505 6.63788C8.40844 6.61018 8.38134 6.57914 8.46155 6.63629C8.55393 6.70212 8.67783 6.80249 8.91795 6.99895L10.8177 4.67708ZM10.6999 4.58994L10.6999 4.58994L9.03575 7.08609L9.03576 7.08609L10.6999 4.58994ZM11.7183 5.44593C11.8966 5.46999 11.9391 5.54262 11.7276 5.3956C11.5281 5.2569 11.2625 5.04108 10.8177 4.67708L8.91795 6.99895C9.3237 7.33093 9.69615 7.63709 10.0154 7.85899C10.3227 8.07258 10.7648 8.34444 11.3171 8.41897L11.7183 5.44593ZM11.5635 5.51007C11.5998 5.4624 11.6589 5.43791 11.7183 5.44593L11.3171 8.41897C12.3268 8.55525 13.3319 8.13891 13.9495 7.32859L11.5635 5.51007ZM11.6567 4.32957C11.5995 4.90152 11.5644 5.24188 11.5213 5.48106C11.4757 5.73457 11.4544 5.65315 11.5635 5.51007L13.9495 7.32859C14.2873 6.8854 14.4077 6.38053 14.4739 6.01221C14.5428 5.62957 14.5896 5.14972 14.6418 4.62808L11.6567 4.32957ZM11.6493 4.47881V4.47882H14.6493V4.47881H11.6493ZM11.6493 4.47881V4.47881H14.6493V4.47881H11.6493ZM12.0189 2.69939C11.8609 3.00581 11.7911 3.30417 11.7495 3.55232C11.7103 3.78574 11.6836 4.06048 11.6567 4.32955L14.6418 4.62806C14.6727 4.31938 14.6893 4.1608 14.7081 4.04894C14.7244 3.95181 14.7272 3.99293 14.6855 4.07375L12.0189 2.69939ZM13.4964 1.36222C12.8582 1.61432 12.3332 2.08945 12.0189 2.69939L14.6855 4.07375C14.667 4.10963 14.6362 4.13758 14.5986 4.15241L13.4964 1.36222ZM15.1545 1.16406C14.8841 1.16406 14.6081 1.16329 14.3719 1.17905C14.1209 1.1958 13.817 1.23556 13.4964 1.36222L14.5986 4.15241C14.514 4.18581 14.4734 4.17895 14.5717 4.17239C14.6849 4.16484 14.8443 4.16406 15.1545 4.16406V1.16406ZM16.8399 1.16406H15.1545V4.16406H16.8399V1.16406ZM18.4989 1.36243C18.1781 1.23564 17.8742 1.19584 17.623 1.17906C17.3867 1.16329 17.1105 1.16406 16.8399 1.16406V4.16406C17.1503 4.16406 17.3099 4.16484 17.4231 4.1724C17.5214 4.17896 17.4808 4.18583 17.3961 4.15239L18.4989 1.36243ZM19.9757 2.69887C19.6614 2.08935 19.1367 1.61451 18.4989 1.36243L17.3961 4.15239C17.3586 4.13757 17.3278 4.10963 17.3093 4.07378L19.9757 2.69887ZM20.3381 4.32994C20.3112 4.0607 20.2845 3.7858 20.2453 3.55225C20.2036 3.30397 20.1337 3.00544 19.9757 2.69888L17.3093 4.07378C17.2676 3.99292 17.2704 3.95177 17.2867 4.04897C17.3055 4.16091 17.3221 4.31959 17.353 4.62846L20.3381 4.32994ZM19.832 15.9977C19.832 18.1148 18.1158 19.8311 15.9987 19.8311V22.8311C19.7726 22.8311 22.832 19.7717 22.832 15.9977H19.832ZM15.9987 12.1644C18.1158 12.1644 19.832 13.8806 19.832 15.9977H22.832C22.832 12.2238 19.7726 9.16439 15.9987 9.16439V12.1644ZM12.1654 15.9977C12.1654 13.8806 13.8816 12.1644 15.9987 12.1644V9.16439C12.2248 9.16439 9.16537 12.2238 9.16537 15.9977H12.1654ZM15.9987 19.8311C13.8816 19.8311 12.1654 18.1148 12.1654 15.9977H9.16537C9.16537 19.7717 12.2248 22.8311 15.9987 22.8311V19.8311Z" fill="#282828"/>
</svg>
