<svg width="29" height="27" viewBox="0 0 29 27" fill="none" xmlns="http://www.w3.org/2000/svg">
<path fill-rule="evenodd" clip-rule="evenodd" d="M15.6088 1.5C15.6088 0.671573 14.9372 0 14.1088 0C13.2803 0 12.6088 0.671573 12.6088 1.5V12H12.1963C12.1858 11.9998 12.1753 11.9997 12.1647 11.9997H9.49805C9.48049 11.9997 9.46296 11.9998 9.44545 12H2.10877C1.28034 12 0.608769 12.6716 0.608768 13.5C0.608768 14.3284 1.28034 15 2.10877 15H5.49682C5.38912 15.3701 5.33138 15.7615 5.33138 16.1663V20.1663C5.33138 20.8107 4.80905 21.333 4.16471 21.333H1.49805C0.66962 21.333 -0.00195312 22.0046 -0.00195312 22.833C-0.00195312 23.6614 0.66962 24.333 1.49805 24.333H4.16471C6.4659 24.333 8.33138 22.4675 8.33138 20.1663V16.1663C8.33138 15.5313 8.83875 15.0148 9.47023 15H12.6088V25.5C12.6088 26.3284 13.2803 27 14.1088 27C14.9372 27 15.6088 26.3284 15.6088 25.5V15H16.0784C16.0889 15.0002 16.0995 15.0003 16.11 15.0003H18.7767C18.786 15.0003 18.7953 15.0003 18.8046 15.0002C18.8129 15.0002 18.8211 15.0001 18.8294 15H26.1088C26.9372 15 27.6088 14.3284 27.6088 13.5C27.6088 12.6716 26.9372 12 26.1088 12H22.7779C22.8856 11.6299 22.9434 11.2385 22.9434 10.8337V6.83366C22.9434 6.18933 23.4657 5.66699 24.11 5.66699H26.7767C27.6051 5.66699 28.2767 4.99542 28.2767 4.16699C28.2767 3.33857 27.6051 2.66699 26.7767 2.66699H24.11C21.8088 2.66699 19.9434 4.53247 19.9434 6.83366V10.8337C19.9434 11.4687 19.436 11.9852 18.8046 12H15.6088V1.5Z" fill="#282828"/>
</svg>
