<svg width="32" height="32" viewBox="0 0 32 32" fill="none" xmlns="http://www.w3.org/2000/svg">
<rect width="8.23242" height="8.23242" rx="1.37207" transform="matrix(1 0 0 -1 18.7207 13.2812)" stroke="#282828" stroke-width="2.74414" stroke-linecap="round"/>
<path d="M17.2363 18.7656H22.7246C24.0182 18.7656 24.665 18.7656 25.0669 19.1675C25.4688 19.5694 25.4688 20.2162 25.4688 21.5098V24.2539C25.4688 25.5475 25.4688 26.1943 25.0669 26.5962C24.665 26.998 24.0182 26.998 22.7246 26.998H17.2363V18.7656Z" stroke="#282828" stroke-width="2.74414" stroke-linecap="round"/>
<path d="M13.2363 9.27539C13.2363 7.98179 13.2363 7.33499 12.8345 6.93312C12.4326 6.53125 11.7858 6.53125 10.4922 6.53125H7.74805C6.45445 6.53125 5.80765 6.53125 5.40578 6.93312C5.00391 7.33499 5.00391 7.98179 5.00391 9.27539V14.7637H13.2363V9.27539Z" stroke="#282828" stroke-width="2.74414" stroke-linecap="round"/>
<path d="M13.2344 27H7.74609C6.45249 27 5.80569 27 5.40382 26.5981C5.00195 26.1963 5.00195 25.5495 5.00195 24.2559V18.7676H13.2344V27Z" stroke="#282828" stroke-width="2.74414" stroke-linecap="round"/>
</svg>
